<?xml version="1.0" standalone="no"?>
<!DOCTYPE svg PUBLIC "-//W3C//DTD SVG 20010904//EN"
 "http://www.w3.org/TR/2001/REC-SVG-20010904/DTD/svg10.dtd">
<svg version="1.0" xmlns="http://www.w3.org/2000/svg"
 width="100.000000pt" height="100.000000pt" viewBox="0 0 100.000000 100.000000"
 preserveAspectRatio="xMidYMid meet">

<g transform="translate(0.000000,100.000000) scale(0.100000,-0.100000)"
fill="#000000" stroke="none">
<path d="M0 500 l0 -500 500 0 500 0 0 500 0 500 -500 0 -500 0 0 -500z m510
415 c0 -8 -9 -15 -20 -15 -20 0 -26 11 -13 23 12 13 33 7 33 -8z m-6 -61 c3
-8 -4 -18 -17 -25 -18 -9 -20 -9 -10 1 10 11 9 16 -3 24 -13 10 -13 12 5 13
10 1 22 -5 25 -13z m-24 -471 c0 -13 -3 -13 -15 -3 -8 7 -15 16 -15 21 0 5 7
6 15 3 8 -4 15 -13 15 -21z m-143 -138 c6 -14 7 -27 3 -30 -5 -3 -11 1 -13 7
-3 7 -6 2 -6 -11 -1 -20 -3 -21 -16 -11 -12 10 -15 10 -16 -1 0 -8 -5 -3 -10
10 -11 27 -3 43 11 21 8 -12 10 -11 10 6 0 40 20 45 37 9z m403 -36 c0 -17 -4
-28 -10 -24 -5 3 -10 0 -10 -7 0 -7 -7 -2 -16 10 -19 28 -12 52 16 52 16 0 20
-7 20 -31z m-300 -180 c0 -5 -9 -9 -20 -9 -22 0 -27 16 -7 23 15 5 27 -1 27
-14z"/>
</g>
</svg>
